<svg xmlns="http://www.w3.org/2000/svg" viewBox="0 0 512 512">
  <defs/>
  <circle cx="256" cy="256" r="168" fill="#cff09e"/>
  <g fill="#507c5c">
    <path d="M256 0a14 14 0 000 28c58 0 111 21 151 57l-33 33a180 180 0 00-236 0L95 75c-6-5-15-5-20 0A256 256 0 10256 0zm109 147a14 14 0 0021-1l41-41c33 37 54 85 57 137h-16a14 14 0 000 28h16c-3 51-23 99-57 137l-33-33c27-31 44-73 44-118a14 14 0 00-28 0 154 154 0 11-45-109zM256 453c-8 0-14 6-14 14v17c-52-3-100-24-137-57l33-33a181 181 0 00236 0l33 33c-38 34-86 54-137 57v-17c0-8-6-14-14-14zM28 270h47c3 40 19 76 43 104l-33 33c-33-37-54-85-57-137zm57-165l33 33c-24 28-40 64-43 104H28c3-51 23-99 57-137z"/>
    <path d="M239 246c10-9 16-21 16-35 0-24-20-45-45-45h-37c-5 0-8 4-8 9v146c0 2 1 3 3 3h15c2 0 3-1 3-3v-64h24c13 0 23 10 23 23v41c0 2 2 3 4 3h15c2 0 3-1 3-3v-41c0-13-6-26-16-34zm-29-11h-24v-47h24c16 0 28 16 22 33-3 8-13 14-22 14zM309 225c-7 0-13 2-18 5v-4c0-2-2-3-4-3h-15c-2 0-4 1-4 3v116c0 2 2 4 4 4h15c2 0 4-2 4-4v-41c5 3 11 5 18 5 21 0 38-18 38-40s-17-41-38-41zm0 60c-10 0-18-8-18-19s8-20 18-20 18 9 18 20-8 19-18 19z"/>
  </g>
</svg>
